# xmcd
#
# Track frame offsets:
#  187
#  19075
#  35807
#  55885
#  73930
#  91370
#  104462
#  120927
#  138592
#  151425
#
# Disc length: 2233 seconds
#
# Revision: 4
# Processed by: cddbd v1.5.1PL0 Copyright (c) Steve Scherf et al.
# Submitted via: Collectorz.com_Music_Collector 6.9
#
DISCID=8a08b70a
DTITLE=Lee Greenwood - This Is My Country
DYEAR=1988
DGENRE=Country
TTITLE0=I'll Be Lovin 'You
TTITLE1=I Still Believe
TTITLE2=Mountain Right
TTITLE3=Ruby
TTITLE4=You Can't Fall In Love When You're Cryin'
TTITLE5=Lola's Love
TTITLE6=Do That To Me One More Time
TTITLE7=Tennessee Waltz
TTITLE8=I'll Still Be Lovin' You
TTITLE9=As If I Didn't Know
EXTD=
EXTT0=
EXTT1=
EXTT2=
EXTT3=
EXTT4=
EXTT5=
EXTT6=
EXTT7=
EXTT8=
EXTT9=
PLAYORDER=
